<svg width="37" height="20" viewBox="0 0 37 20" fill="none" xmlns="http://www.w3.org/2000/svg">
<g clip-path="url(#clip0_53630_312)">
<path d="M1.58226 6.70709C2.2434 7.39802 3.0791 8.12936 4.08194 8.90114L18.1774 20L33.3129 8.59978C34.13 7.97868 34.8135 7.36494 35.3632 6.75854C35.9166 6.15215 36.2769 5.70011 36.4477 5.39508H36.5517V0.731349H36.4514C36.0912 0.628445 35.6492 0.532892 35.1255 0.441014C34.598 0.349136 33.9406 0.271959 33.1495 0.213157C32.3584 0.154355 31.4261 0.102903 30.3452 0.062477C29.2644 0.0220507 28.0053 0 26.5604 0L9.96899 0C8.52416 0 7.26132 0.0220507 6.18419 0.062477C5.10707 0.102903 4.1748 0.154355 3.39481 0.213157C2.61482 0.271959 1.9574 0.349136 1.43369 0.441014C0.906273 0.532892 0.464279 0.628445 0.107716 0.731349H0.00743103V5.14517H0.107716C0.427139 5.49798 0.917416 6.01985 1.58226 6.70709Z" fill="white"/>
</g>
<defs>
<clipPath id="clip0_53630_312">
<rect width="20" height="36.5517" fill="white" transform="matrix(0 1 -1 0 36.5517 0)"/>
</clipPath>
</defs>
</svg>
